<svg xmlns="http://www.w3.org/2000/svg" xmlns:xlink="http://www.w3.org/1999/xlink" width="500" zoomAndPan="magnify" viewBox="0 0 375 374.999991" height="500" preserveAspectRatio="xMidYMid meet" version="1.0"><defs><g/><clipPath id="0dd42be9cf"><path d="M 245 53 L 292.703125 53 L 292.703125 198 L 245 198 Z M 245 53 " clip-rule="nonzero"/></clipPath><clipPath id="1dc46b6e5b"><path d="M 146 22.019531 L 198 22.019531 L 198 209.625 L 146 209.625 Z M 146 22.019531 " clip-rule="nonzero"/></clipPath><clipPath id="5e6f811bfc"><path d="M 81.953125 22.019531 L 134 22.019531 L 134 209.625 L 81.953125 209.625 Z M 81.953125 22.019531 " clip-rule="nonzero"/></clipPath></defs><path fill="#5e17eb" d="M 206.375 70.316406 C 205.617188 66.515625 201.882812 64.003906 198.039062 64.804688 C 197.949219 64.828125 197.863281 64.871094 197.773438 64.894531 L 197.75 94.140625 L 224.796875 202.582031 C 225.578125 206.425781 229.3125 208.914062 233.132812 208.117188 C 236.957031 207.359375 239.421875 203.605469 238.644531 199.78125 Z M 206.375 70.316406 " fill-opacity="1" fill-rule="nonzero"/><path fill="#5e17eb" d="M 221.355469 67.339844 C 221.019531 65.671875 219.375 64.582031 217.707031 64.914062 C 216.042969 65.25 214.953125 66.917969 215.285156 68.582031 L 247.535156 197.914062 C 247.867188 199.582031 249.535156 200.691406 251.203125 200.335938 C 252.871094 200.003906 253.957031 198.359375 253.601562 196.691406 Z M 221.355469 67.339844 " fill-opacity="1" fill-rule="nonzero"/><path fill="#5e17eb" d="M 237.535156 64.070312 C 237.199219 62.40625 235.554688 61.292969 233.890625 61.648438 C 232.222656 61.980469 231.132812 63.625 231.464844 65.292969 L 263.714844 194.648438 C 264.070312 196.292969 265.695312 197.402344 267.359375 197.070312 C 269.050781 196.734375 270.117188 195.070312 269.785156 193.402344 Z M 237.535156 64.070312 " fill-opacity="1" fill-rule="nonzero"/><g clip-path="url(#0dd42be9cf)"><path fill="#5e17eb" d="M 259.847656 59.46875 C 259.070312 55.671875 255.335938 53.160156 251.492188 53.957031 C 247.667969 54.714844 245.203125 58.46875 245.957031 62.292969 L 278.25 191.734375 C 279.027344 195.582031 282.761719 198.046875 286.585938 197.269531 C 290.429688 196.492188 292.898438 192.757812 292.121094 188.933594 Z M 259.847656 59.46875 " fill-opacity="1" fill-rule="nonzero"/></g><g clip-path="url(#1dc46b6e5b)"><path fill="#5e17eb" d="M 197.773438 64.894531 L 197.773438 34.710938 C 197.816406 27.710938 192.148438 22.066406 185.148438 22.066406 L 158.746094 22.019531 C 151.765625 22.019531 146.121094 27.664062 146.097656 34.667969 L 146.03125 196.957031 C 146.03125 203.914062 151.675781 209.605469 158.65625 209.605469 L 185.039062 209.625 C 192.039062 209.625 197.707031 203.960938 197.707031 197.003906 L 197.75 94.140625 L 192.503906 73.140625 C 191.773438 69.425781 194.105469 65.78125 197.773438 64.894531 Z M 182.636719 190.933594 L 161.210938 190.914062 C 158.765625 190.914062 156.765625 188.914062 156.765625 186.488281 C 156.789062 184.046875 158.765625 182.042969 161.210938 182.042969 L 182.636719 182.066406 C 185.082031 182.066406 187.058594 184.066406 187.058594 186.511719 C 187.058594 188.933594 185.082031 190.933594 182.636719 190.933594 Z M 182.660156 63.871094 L 161.234375 63.871094 C 158.789062 63.871094 156.789062 61.871094 156.789062 59.425781 C 156.789062 56.980469 158.789062 55.003906 161.234375 55.003906 L 182.660156 55.027344 C 185.105469 55.027344 187.082031 57.027344 187.082031 59.449219 C 187.058594 61.894531 185.105469 63.871094 182.660156 63.871094 Z M 182.660156 63.871094 " fill-opacity="1" fill-rule="nonzero"/></g><path fill="#5e17eb" d="M 192.503906 73.140625 L 197.75 94.140625 L 197.773438 64.894531 C 194.105469 65.78125 191.773438 69.425781 192.503906 73.140625 Z M 192.503906 73.140625 " fill-opacity="1" fill-rule="nonzero"/><g clip-path="url(#5e6f811bfc)"><path fill="#5e17eb" d="M 121.070312 22.042969 L 94.691406 22.019531 C 87.710938 22.019531 82.042969 27.664062 82.023438 34.667969 L 81.953125 196.957031 C 81.933594 203.914062 87.601562 209.605469 94.578125 209.605469 L 120.960938 209.625 C 127.960938 209.625 133.628906 203.960938 133.628906 197.003906 L 133.695312 34.710938 C 133.71875 27.710938 128.050781 22.042969 121.070312 22.042969 Z M 118.582031 190.933594 L 97.136719 190.914062 C 94.710938 190.914062 92.710938 188.914062 92.710938 186.488281 C 92.710938 184.046875 94.691406 182.042969 97.136719 182.042969 L 118.582031 182.066406 C 121.003906 182.066406 123.003906 184.066406 123.003906 186.511719 C 123.003906 188.933594 121.003906 190.933594 118.582031 190.933594 Z M 118.582031 63.871094 L 97.15625 63.871094 C 94.710938 63.871094 92.734375 61.871094 92.734375 59.425781 C 92.734375 56.980469 94.710938 55.003906 97.15625 55.003906 L 118.582031 55.027344 C 121.027344 55.027344 123.003906 57.027344 123.003906 59.449219 C 123.003906 61.894531 121.003906 63.871094 118.582031 63.871094 Z M 118.582031 63.871094 " fill-opacity="1" fill-rule="nonzero"/></g><g fill="#000000" fill-opacity="1"><g transform="translate(8.526628, 294.661731)"><g><path d="M 5.171875 -51.640625 L 19.765625 -51.640625 L 19.765625 -11.578125 L 44.421875 -11.578125 L 44.421875 0 L 5.171875 0 Z M 5.171875 -51.640625 "/></g></g></g><g fill="#000000" fill-opacity="1"><g transform="translate(59.215487, 294.661731)"><g><path d="M 5.171875 -51.640625 L 19.765625 -51.640625 L 19.765625 0 L 5.171875 0 Z M 5.171875 -51.640625 "/></g></g></g><g fill="#000000" fill-opacity="1"><g transform="translate(89.90943, 294.661731)"><g><path d="M 44.859375 -26.9375 C 47.804688 -25.894531 50.113281 -24.28125 51.78125 -22.09375 C 53.457031 -19.90625 54.296875 -17.265625 54.296875 -14.171875 C 54.296875 -9.640625 52.476562 -6.144531 48.84375 -3.6875 C 45.207031 -1.226562 39.941406 0 33.046875 0 L 5.171875 0 L 5.171875 -51.640625 L 31.578125 -51.640625 C 38.171875 -51.640625 43.1875 -50.421875 46.625 -47.984375 C 50.070312 -45.554688 51.796875 -42.273438 51.796875 -38.140625 C 51.796875 -35.679688 51.191406 -33.476562 49.984375 -31.53125 C 48.773438 -29.59375 47.066406 -28.0625 44.859375 -26.9375 Z M 19.625 -41.09375 L 19.625 -31.140625 L 29.65625 -31.140625 C 34.570312 -31.140625 37.03125 -32.8125 37.03125 -36.15625 C 37.03125 -39.445312 34.570312 -41.09375 29.65625 -41.09375 Z M 31.875 -10.546875 C 36.988281 -10.546875 39.546875 -12.296875 39.546875 -15.796875 C 39.546875 -19.285156 36.988281 -21.03125 31.875 -21.03125 L 19.625 -21.03125 L 19.625 -10.546875 Z M 31.875 -10.546875 "/></g></g></g><g fill="#000000" fill-opacity="1"><g transform="translate(152.329632, 294.661731)"><g><path d="M 27.734375 -13.71875 L 19.765625 -13.71875 L 19.765625 0 L 5.171875 0 L 5.171875 -51.640625 L 28.78125 -51.640625 C 33.445312 -51.640625 37.5 -50.863281 40.9375 -49.3125 C 44.382812 -47.769531 47.039062 -45.554688 48.90625 -42.671875 C 50.78125 -39.796875 51.71875 -36.414062 51.71875 -32.53125 C 51.71875 -28.800781 50.84375 -25.546875 49.09375 -22.765625 C 47.351562 -19.984375 44.859375 -17.804688 41.609375 -16.234375 L 52.75 0 L 37.109375 0 Z M 36.96875 -32.53125 C 36.96875 -34.945312 36.203125 -36.816406 34.671875 -38.140625 C 33.148438 -39.472656 30.890625 -40.140625 27.890625 -40.140625 L 19.765625 -40.140625 L 19.765625 -25.015625 L 27.890625 -25.015625 C 30.890625 -25.015625 33.148438 -25.664062 34.671875 -26.96875 C 36.203125 -28.269531 36.96875 -30.125 36.96875 -32.53125 Z M 36.96875 -32.53125 "/></g></g></g><g fill="#000000" fill-opacity="1"><g transform="translate(212.610171, 294.661731)"><g><path d="M 39.765625 -10.03125 L 17.921875 -10.03125 L 13.875 0 L -1.03125 0 L 21.765625 -51.640625 L 36.15625 -51.640625 L 59.03125 0 L 43.828125 0 Z M 35.484375 -20.8125 L 28.84375 -37.328125 L 22.203125 -20.8125 Z M 35.484375 -20.8125 "/></g></g></g><g fill="#000000" fill-opacity="1"><g transform="translate(276.284678, 294.661731)"><g><path d="M 5.171875 -51.640625 L 19.765625 -51.640625 L 19.765625 0 L 5.171875 0 Z M 5.171875 -51.640625 "/></g></g></g><g fill="#000000" fill-opacity="1"><g transform="translate(306.978627, 294.661731)"><g><path d="M 54.296875 -51.640625 L 54.296875 0 L 42.28125 0 L 19.484375 -27.515625 L 19.484375 0 L 5.171875 0 L 5.171875 -51.640625 L 17.1875 -51.640625 L 39.984375 -24.125 L 39.984375 -51.640625 Z M 54.296875 -51.640625 "/></g></g></g><g fill="#000000" fill-opacity="1"><g transform="translate(46.155659, 345.571982)"><g><path d="M 19.109375 0 L 19.078125 -12.03125 L 13.109375 -2.078125 L 11.609375 -2.078125 L 5.65625 -11.875 L 5.65625 0 L 2.4375 0 L 2.4375 -18.140625 L 5.203125 -18.140625 L 12.421875 -6.125 L 19.5 -18.140625 L 22.265625 -18.140625 L 22.296875 0 Z M 19.109375 0 "/></g></g></g><g fill="#000000" fill-opacity="1"><g transform="translate(77.700327, 345.571982)"><g><path d="M 10.90625 0.265625 C 9.0625 0.265625 7.394531 -0.132812 5.90625 -0.9375 C 4.425781 -1.75 3.257812 -2.863281 2.40625 -4.28125 C 1.5625 -5.707031 1.140625 -7.304688 1.140625 -9.078125 C 1.140625 -10.835938 1.5625 -12.429688 2.40625 -13.859375 C 3.257812 -15.285156 4.425781 -16.398438 5.90625 -17.203125 C 7.394531 -18.003906 9.0625 -18.40625 10.90625 -18.40625 C 12.757812 -18.40625 14.425781 -18.003906 15.90625 -17.203125 C 17.394531 -16.398438 18.5625 -15.289062 19.40625 -13.875 C 20.257812 -12.457031 20.6875 -10.859375 20.6875 -9.078125 C 20.6875 -7.296875 20.257812 -5.695312 19.40625 -4.28125 C 18.5625 -2.863281 17.394531 -1.75 15.90625 -0.9375 C 14.425781 -0.132812 12.757812 0.265625 10.90625 0.265625 Z M 10.90625 -2.703125 C 12.125 -2.703125 13.210938 -2.972656 14.171875 -3.515625 C 15.140625 -4.054688 15.898438 -4.816406 16.453125 -5.796875 C 17.015625 -6.773438 17.296875 -7.867188 17.296875 -9.078125 C 17.296875 -10.285156 17.015625 -11.375 16.453125 -12.34375 C 15.898438 -13.320312 15.140625 -14.082031 14.171875 -14.625 C 13.210938 -15.175781 12.125 -15.453125 10.90625 -15.453125 C 9.695312 -15.453125 8.609375 -15.175781 7.640625 -14.625 C 6.679688 -14.082031 5.921875 -13.320312 5.359375 -12.34375 C 4.804688 -11.375 4.53125 -10.285156 4.53125 -9.078125 C 4.53125 -7.867188 4.804688 -6.773438 5.359375 -5.796875 C 5.921875 -4.816406 6.679688 -4.054688 7.640625 -3.515625 C 8.609375 -2.972656 9.695312 -2.703125 10.90625 -2.703125 Z M 10.90625 -2.703125 "/></g></g></g><g fill="#000000" fill-opacity="1"><g transform="translate(106.316233, 345.571982)"><g><path d="M 18.5625 -18.140625 L 18.5625 0 L 15.78125 0 L 5.78125 -12.28125 L 5.78125 0 L 2.4375 0 L 2.4375 -18.140625 L 5.203125 -18.140625 L 15.21875 -5.859375 L 15.21875 -18.140625 Z M 18.5625 -18.140625 "/></g></g></g><g fill="#000000" fill-opacity="1"><g transform="translate(134.102763, 345.571982)"><g><path d="M 14.828125 -9.28125 L 18.015625 -9.28125 L 18.015625 -2.046875 C 17.078125 -1.304688 15.988281 -0.734375 14.75 -0.328125 C 13.507812 0.0664062 12.226562 0.265625 10.90625 0.265625 C 9.0625 0.265625 7.394531 -0.132812 5.90625 -0.9375 C 4.425781 -1.75 3.257812 -2.863281 2.40625 -4.28125 C 1.5625 -5.695312 1.140625 -7.296875 1.140625 -9.078125 C 1.140625 -10.859375 1.5625 -12.457031 2.40625 -13.875 C 3.257812 -15.289062 4.429688 -16.398438 5.921875 -17.203125 C 7.421875 -18.003906 9.101562 -18.40625 10.96875 -18.40625 C 12.488281 -18.40625 13.867188 -18.15625 15.109375 -17.65625 C 16.359375 -17.15625 17.40625 -16.421875 18.25 -15.453125 L 16.125 -13.375 C 14.738281 -14.757812 13.070312 -15.453125 11.125 -15.453125 C 9.84375 -15.453125 8.703125 -15.179688 7.703125 -14.640625 C 6.710938 -14.109375 5.9375 -13.359375 5.375 -12.390625 C 4.8125 -11.421875 4.53125 -10.316406 4.53125 -9.078125 C 4.53125 -7.867188 4.8125 -6.78125 5.375 -5.8125 C 5.9375 -4.84375 6.710938 -4.082031 7.703125 -3.53125 C 8.703125 -2.976562 9.832031 -2.703125 11.09375 -2.703125 C 12.507812 -2.703125 13.753906 -3.007812 14.828125 -3.625 Z M 14.828125 -9.28125 "/></g></g></g><g fill="#000000" fill-opacity="1"><g transform="translate(160.904389, 345.571982)"><g><path d="M 10.90625 0.265625 C 9.0625 0.265625 7.394531 -0.132812 5.90625 -0.9375 C 4.425781 -1.75 3.257812 -2.863281 2.40625 -4.28125 C 1.5625 -5.707031 1.140625 -7.304688 1.140625 -9.078125 C 1.140625 -10.835938 1.5625 -12.429688 2.40625 -13.859375 C 3.257812 -15.285156 4.425781 -16.398438 5.90625 -17.203125 C 7.394531 -18.003906 9.0625 -18.40625 10.90625 -18.40625 C 12.757812 -18.40625 14.425781 -18.003906 15.90625 -17.203125 C 17.394531 -16.398438 18.5625 -15.289062 19.40625 -13.875 C 20.257812 -12.457031 20.6875 -10.859375 20.6875 -9.078125 C 20.6875 -7.296875 20.257812 -5.695312 19.40625 -4.28125 C 18.5625 -2.863281 17.394531 -1.75 15.90625 -0.9375 C 14.425781 -0.132812 12.757812 0.265625 10.90625 0.265625 Z M 10.90625 -2.703125 C 12.125 -2.703125 13.210938 -2.972656 14.171875 -3.515625 C 15.140625 -4.054688 15.898438 -4.816406 16.453125 -5.796875 C 17.015625 -6.773438 17.296875 -7.867188 17.296875 -9.078125 C 17.296875 -10.285156 17.015625 -11.375 16.453125 -12.34375 C 15.898438 -13.320312 15.140625 -14.082031 14.171875 -14.625 C 13.210938 -15.175781 12.125 -15.453125 10.90625 -15.453125 C 9.695312 -15.453125 8.609375 -15.175781 7.640625 -14.625 C 6.679688 -14.082031 5.921875 -13.320312 5.359375 -12.34375 C 4.804688 -11.375 4.53125 -10.285156 4.53125 -9.078125 C 4.53125 -7.867188 4.804688 -6.773438 5.359375 -5.796875 C 5.921875 -4.816406 6.679688 -4.054688 7.640625 -3.515625 C 8.609375 -2.972656 9.695312 -2.703125 10.90625 -2.703125 Z M 10.90625 -2.703125 "/></g></g></g><g fill="#000000" fill-opacity="1"><g transform="translate(189.520297, 345.571982)"><g><path d="M 2.4375 -18.140625 L 10.375 -18.140625 C 12.300781 -18.140625 14.015625 -17.765625 15.515625 -17.015625 C 17.023438 -16.265625 18.191406 -15.203125 19.015625 -13.828125 C 19.847656 -12.453125 20.265625 -10.867188 20.265625 -9.078125 C 20.265625 -7.273438 19.847656 -5.6875 19.015625 -4.3125 C 18.191406 -2.9375 17.023438 -1.875 15.515625 -1.125 C 14.015625 -0.375 12.300781 0 10.375 0 L 2.4375 0 Z M 10.21875 -2.84375 C 11.539062 -2.84375 12.707031 -3.097656 13.71875 -3.609375 C 14.726562 -4.117188 15.503906 -4.84375 16.046875 -5.78125 C 16.597656 -6.726562 16.875 -7.828125 16.875 -9.078125 C 16.875 -10.316406 16.597656 -11.40625 16.046875 -12.34375 C 15.503906 -13.289062 14.726562 -14.019531 13.71875 -14.53125 C 12.707031 -15.039062 11.539062 -15.296875 10.21875 -15.296875 L 5.8125 -15.296875 L 5.8125 -2.84375 Z M 10.21875 -2.84375 "/></g></g></g><g fill="#000000" fill-opacity="1"><g transform="translate(217.721508, 345.571982)"><g><path d="M 15.296875 -9.4375 C 16.296875 -9.101562 17.085938 -8.550781 17.671875 -7.78125 C 18.265625 -7.019531 18.5625 -6.066406 18.5625 -4.921875 C 18.5625 -3.347656 17.957031 -2.132812 16.75 -1.28125 C 15.539062 -0.425781 13.773438 0 11.453125 0 L 2.4375 0 L 2.4375 -18.140625 L 10.9375 -18.140625 C 13.082031 -18.140625 14.734375 -17.71875 15.890625 -16.875 C 17.046875 -16.039062 17.625 -14.890625 17.625 -13.421875 C 17.625 -12.523438 17.414062 -11.726562 17 -11.03125 C 16.582031 -10.34375 16.015625 -9.8125 15.296875 -9.4375 Z M 5.8125 -15.5 L 5.8125 -10.5 L 10.578125 -10.5 C 11.753906 -10.5 12.65625 -10.707031 13.28125 -11.125 C 13.914062 -11.550781 14.234375 -12.171875 14.234375 -12.984375 C 14.234375 -13.816406 13.914062 -14.441406 13.28125 -14.859375 C 12.65625 -15.285156 11.753906 -15.5 10.578125 -15.5 Z M 11.25 -2.640625 C 13.863281 -2.640625 15.171875 -3.515625 15.171875 -5.265625 C 15.171875 -7.003906 13.863281 -7.875 11.25 -7.875 L 5.8125 -7.875 L 5.8125 -2.640625 Z M 11.25 -2.640625 "/></g></g></g><g fill="#000000" fill-opacity="1"><g transform="translate(244.238048, 345.571982)"><g/></g></g><g fill="#000000" fill-opacity="1"><g transform="translate(258.184226, 345.571982)"><g><path d="M 14.203125 -4.203125 L 5.125 -4.203125 L 3.34375 0 L -0.125 0 L 8.03125 -18.140625 L 11.359375 -18.140625 L 19.546875 0 L 16.015625 0 Z M 13.09375 -6.84375 L 9.671875 -14.78125 L 6.265625 -6.84375 Z M 13.09375 -6.84375 "/></g></g></g><g fill="#000000" fill-opacity="1"><g transform="translate(284.389722, 345.571982)"><g><path d="M 9.90625 -18.140625 C 11.476562 -18.140625 12.847656 -17.878906 14.015625 -17.359375 C 15.179688 -16.847656 16.070312 -16.109375 16.6875 -15.140625 C 17.3125 -14.171875 17.625 -13.019531 17.625 -11.6875 C 17.625 -10.375 17.3125 -9.226562 16.6875 -8.25 C 16.070312 -7.28125 15.179688 -6.535156 14.015625 -6.015625 C 12.847656 -5.492188 11.476562 -5.234375 9.90625 -5.234375 L 5.8125 -5.234375 L 5.8125 0 L 2.4375 0 L 2.4375 -18.140625 Z M 9.75 -8.09375 C 11.21875 -8.09375 12.332031 -8.398438 13.09375 -9.015625 C 13.851562 -9.640625 14.234375 -10.53125 14.234375 -11.6875 C 14.234375 -12.84375 13.851562 -13.734375 13.09375 -14.359375 C 12.332031 -14.984375 11.21875 -15.296875 9.75 -15.296875 L 5.8125 -15.296875 L 5.8125 -8.09375 Z M 9.75 -8.09375 "/></g></g></g><g fill="#000000" fill-opacity="1"><g transform="translate(309.999097, 345.571982)"><g><path d="M 9.90625 -18.140625 C 11.476562 -18.140625 12.847656 -17.878906 14.015625 -17.359375 C 15.179688 -16.847656 16.070312 -16.109375 16.6875 -15.140625 C 17.3125 -14.171875 17.625 -13.019531 17.625 -11.6875 C 17.625 -10.375 17.3125 -9.226562 16.6875 -8.25 C 16.070312 -7.28125 15.179688 -6.535156 14.015625 -6.015625 C 12.847656 -5.492188 11.476562 -5.234375 9.90625 -5.234375 L 5.8125 -5.234375 L 5.8125 0 L 2.4375 0 L 2.4375 -18.140625 Z M 9.75 -8.09375 C 11.21875 -8.09375 12.332031 -8.398438 13.09375 -9.015625 C 13.851562 -9.640625 14.234375 -10.53125 14.234375 -11.6875 C 14.234375 -12.84375 13.851562 -13.734375 13.09375 -14.359375 C 12.332031 -14.984375 11.21875 -15.296875 9.75 -15.296875 L 5.8125 -15.296875 L 5.8125 -8.09375 Z M 9.75 -8.09375 "/></g></g></g></svg>